<svg width="101" height="100" viewBox="0 0 101 100" fill="none" xmlns="http://www.w3.org/2000/svg">
<path d="M50.4297 0C22.8159 0 0.429749 22.3857 0.429749 50C0.429749 77.6143 22.8159 100 50.4297 100C78.0436 100 100.43 77.6143 100.43 50C100.43 22.3857 78.0436 0 50.4297 0ZM67.711 52.6504L42.711 68.2754C42.2051 68.5912 41.6299 68.75 41.0547 68.75C40.5337 68.75 40.0118 68.6203 39.5395 68.3578C38.5462 67.807 37.9297 66.7617 37.9297 65.625V34.375C37.9297 33.2383 38.5462 32.193 39.5395 31.6422C40.5329 31.0883 41.7475 31.1219 42.711 31.7246L67.711 47.3496C68.6243 47.9219 69.1797 48.9229 69.1797 50C69.1797 51.0771 68.6243 52.0783 67.711 52.6504Z" fill="#D4C17F"/>
</svg>
