<svg width="22" height="20" viewBox="0 0 22 20" fill="none" xmlns="http://www.w3.org/2000/svg">
<path d="M16.0036 0.00416134L13.2365 0C10.1276 0 8.11857 1.9319 8.11857 4.92203V7.19141H5.3363C5.09587 7.19141 4.90118 7.37409 4.90118 7.59943V10.8875C4.90118 11.1128 5.0961 11.2953 5.3363 11.2953H8.11857V19.5922C8.11857 19.8175 8.31326 20 8.55368 20H12.1838C12.4242 20 12.6189 19.8173 12.6189 19.5922V11.2953H15.872C16.1124 11.2953 16.3071 11.1128 16.3071 10.8875L16.3084 7.59943C16.3084 7.49123 16.2625 7.38762 16.181 7.31105C16.0995 7.23448 15.9885 7.19141 15.8731 7.19141H12.6189V5.26763C12.6189 4.34298 12.854 3.87358 14.1391 3.87358L16.0032 3.87295C16.2434 3.87295 16.4381 3.69027 16.4381 3.46514V0.411972C16.4381 0.187052 16.2436 0.00457747 16.0036 0.00416134Z" fill="white"/>
</svg>
