<svg width="23" height="20" viewBox="0 0 23 20" fill="none" xmlns="http://www.w3.org/2000/svg">
<g clip-path="url(#clip0_3_108)">
<path d="M15.3776 0H7.3755C3.69321 0 0.707092 2.79875 0.707092 6.25V13.75C0.707092 17.2013 3.69321 20 7.3755 20H15.3776C19.0599 20 22.046 17.2013 22.046 13.75V6.25C22.046 2.79875 19.0599 0 15.3776 0ZM20.0455 13.75C20.0455 16.1625 17.9516 18.125 15.3776 18.125H7.3755C4.8015 18.125 2.70762 16.1625 2.70762 13.75V6.25C2.70762 3.8375 4.8015 1.875 7.3755 1.875H15.3776C17.9516 1.875 20.0455 3.8375 20.0455 6.25V13.75Z" fill="white"/>
<path d="M11.3765 5C8.43043 5 6.04181 7.23875 6.04181 10C6.04181 12.7613 8.43043 15 11.3765 15C14.3226 15 16.7113 12.7613 16.7113 10C16.7113 7.23875 14.3226 5 11.3765 5ZM11.3765 13.125C9.53872 13.125 8.04233 11.7225 8.04233 10C8.04233 8.27625 9.53872 6.875 11.3765 6.875C13.2144 6.875 14.7107 8.27625 14.7107 10C14.7107 11.7225 13.2144 13.125 11.3765 13.125Z" fill="white"/>
<path d="M17.1114 5.29123C17.504 5.29123 17.8222 4.99294 17.8222 4.62499C17.8222 4.25703 17.504 3.95874 17.1114 3.95874C16.7188 3.95874 16.4005 4.25703 16.4005 4.62499C16.4005 4.99294 16.7188 5.29123 17.1114 5.29123Z" fill="white"/>
</g>
<defs>
<clipPath id="clip0_3_108">
<rect width="21.3389" height="20" fill="white" transform="translate(0.707092)"/>
</clipPath>
</defs>
</svg>
