<svg width="38" height="20" viewBox="0 0 38 20" fill="none" xmlns="http://www.w3.org/2000/svg">
<path d="M37.483 18.0622C37.4377 17.9707 37.3955 17.8948 37.3563 17.834C36.7074 16.7387 35.4673 15.3942 33.6369 13.8002L33.5982 13.7637L33.5788 13.7458L33.5593 13.7275H33.5396C32.7089 12.9852 32.1828 12.4861 31.9625 12.2306C31.5594 11.7439 31.4691 11.2512 31.6894 10.752C31.8451 10.3749 32.4297 9.57835 33.442 8.3614C33.9745 7.71645 34.3962 7.19955 34.7076 6.81011C36.9537 4.01144 37.9275 2.22306 37.6287 1.44425L37.5127 1.26225C37.4348 1.15269 37.2336 1.05245 36.9094 0.961035C36.5844 0.869813 36.1691 0.854728 35.6627 0.915521L30.0546 0.95183C29.9638 0.921657 29.834 0.92447 29.665 0.961035C29.4962 0.997601 29.4118 1.01595 29.4118 1.01595L29.3142 1.06165L29.2367 1.11657C29.1718 1.15288 29.1003 1.21674 29.0224 1.30803C28.9448 1.39899 28.88 1.50575 28.8281 1.6274C28.2176 3.09967 27.5234 4.46851 26.7443 5.73386C26.2639 6.48838 25.8227 7.14227 25.4199 7.69593C25.0175 8.2494 24.68 8.65718 24.4075 8.91858C24.1347 9.18022 23.8885 9.38984 23.6674 9.54818C23.4466 9.70659 23.2781 9.77352 23.1614 9.74904C23.0444 9.72455 22.9342 9.70026 22.83 9.67597C22.6483 9.5664 22.5022 9.41739 22.3921 9.22881C22.2815 9.04023 22.207 8.80287 22.168 8.51693C22.1293 8.2308 22.1064 7.98469 22.0998 7.77776C22.0938 7.57109 22.0965 7.27875 22.1097 6.90159C22.1232 6.52424 22.1293 6.26892 22.1293 6.13506C22.1293 5.67262 22.1389 5.17074 22.1582 4.62929C22.1779 4.08784 22.1937 3.65883 22.207 3.34278C22.2203 3.02641 22.2264 2.6917 22.2264 2.33883C22.2264 1.98596 22.2035 1.70922 22.1582 1.50837C22.1135 1.30777 22.0448 1.11305 21.9543 0.924278C21.8632 0.735697 21.7299 0.589819 21.5551 0.486259C21.3798 0.382827 21.162 0.300747 20.9028 0.239761C20.2146 0.0938189 19.3384 0.0148707 18.2736 0.00259691C15.8591 -0.0216949 14.3076 0.124439 13.6196 0.440808C13.347 0.574476 13.1003 0.757112 12.8797 0.98814C12.646 1.25592 12.6134 1.40206 12.7821 1.4261C13.5611 1.53547 14.1126 1.79712 14.4372 2.21078L14.5542 2.42999C14.6452 2.58814 14.736 2.86813 14.827 3.26959C14.9177 3.67104 14.9763 4.11513 15.0021 4.60161C15.0669 5.48998 15.0669 6.25044 15.0021 6.88305C14.9371 7.51592 14.8757 8.00859 14.8171 8.36146C14.7585 8.71433 14.671 9.00027 14.5542 9.21922C14.4372 9.43823 14.3594 9.57209 14.3204 9.62067C14.2815 9.66926 14.249 9.69988 14.2232 9.71189C14.0545 9.7725 13.879 9.80337 13.6973 9.80337C13.5154 9.80337 13.2949 9.7181 13.0353 9.54767C12.7757 9.37724 12.5064 9.14315 12.2272 8.845C11.9481 8.54678 11.6332 8.13005 11.2826 7.59474C10.9322 7.05942 10.5687 6.42675 10.1922 5.69672L9.88071 5.16729C9.68598 4.82669 9.41998 4.33075 9.08243 3.67993C8.74468 3.02884 8.44615 2.39904 8.18662 1.79066C8.08288 1.53515 7.92703 1.34063 7.71935 1.20677L7.62188 1.15185C7.55709 1.10327 7.45308 1.05168 7.31039 0.996706C7.1675 0.941794 7.0184 0.902415 6.86249 0.878187L1.52685 0.914498C0.981621 0.914498 0.611676 1.03027 0.416881 1.26149L0.338923 1.37086C0.299978 1.43178 0.280334 1.52908 0.280334 1.663C0.280334 1.79686 0.31928 1.96115 0.397238 2.15568C1.17614 3.87145 2.02318 5.52617 2.93836 7.12009C3.85354 8.71402 4.64882 9.99796 5.32371 10.9708C5.99873 11.9443 6.68679 12.8631 7.38787 13.7268C8.08895 14.5907 8.55302 15.1444 8.78008 15.3876C9.00741 15.6313 9.18597 15.8135 9.31576 15.9351L9.80268 16.3731C10.1142 16.6652 10.5718 17.015 11.1754 17.4225C11.7793 17.8303 12.4478 18.2317 13.1812 18.6275C13.9148 19.0226 14.7683 19.3451 15.7421 19.5944C16.7157 19.8441 17.6633 19.9442 18.5851 19.8959H20.8246C21.2788 19.8591 21.6229 19.7253 21.8567 19.4943L21.9342 19.4028C21.9863 19.3302 22.0351 19.2173 22.0801 19.0655C22.1257 18.9134 22.1483 18.7459 22.1483 18.5636C22.135 18.0405 22.1775 17.5691 22.2746 17.1493C22.3717 16.7297 22.4823 16.4134 22.606 16.2003C22.7297 15.9874 22.8692 15.8078 23.0246 15.6622C23.1802 15.5162 23.2911 15.4278 23.3562 15.3974C23.4208 15.3668 23.4725 15.346 23.5114 15.3335C23.823 15.2362 24.1896 15.3305 24.612 15.6167C25.0339 15.9026 25.4297 16.2557 25.8 16.6753C26.17 17.0953 26.6145 17.5665 27.1337 18.0896C27.6532 18.6129 28.1075 19.0018 28.4968 19.2577L28.8861 19.4767C29.1461 19.6229 29.4837 19.7567 29.8992 19.8784C30.3139 20 30.6773 20.0304 30.9894 19.9696L35.9743 19.8967C36.4673 19.8967 36.851 19.8202 37.1231 19.6684C37.3958 19.5163 37.5578 19.3488 37.6101 19.1665C37.6622 18.9841 37.665 18.7771 37.6199 18.5457C37.5738 18.3148 37.5283 18.1534 37.483 18.0622Z" fill="white"/>
</svg>
